<svg width="76" height="36" viewBox="0 0 76 36" fill="none" xmlns="http://www.w3.org/2000/svg">
<path d="M17.4437 4.71545C17.3765 5.83579 17.2421 6.95613 17.0404 8.07648C16.8387 9.18561 16.5811 10.2779 16.2674 11.3535C16.1665 11.6672 16.0825 11.9865 16.0153 12.3114C15.9481 12.6363 15.8752 12.9612 15.7968 13.2861C15.7296 13.5998 15.6512 13.9191 15.5616 14.244C15.4719 14.5577 15.3543 14.8657 15.2086 15.1682C15.1078 15.3923 14.9846 15.6052 14.8389 15.8068C14.6933 15.9973 14.4972 16.1317 14.2508 16.2102C14.1163 16.255 14.0043 16.2214 13.9146 16.1093C13.8362 15.9861 13.7746 15.8404 13.7298 15.6724C13.6962 15.4931 13.6738 15.3195 13.6626 15.1514C13.6626 14.9722 13.6682 14.8433 13.6794 14.7649C13.7354 14.3504 13.797 13.9359 13.8642 13.5213C13.9427 13.1068 14.0267 12.6979 14.1163 12.2946C14.1835 11.9697 14.2395 11.6448 14.2844 11.3199C14.3292 10.9838 14.3684 10.6533 14.402 10.3284C14.458 9.84662 14.514 9.36487 14.57 8.88312C14.6261 8.40137 14.6821 7.91963 14.7381 7.43788C14.1891 8.04287 13.6514 8.65345 13.1248 9.26964C12.5982 9.88583 12.0773 10.5132 11.5619 11.1518C11.2258 11.5775 10.8841 12.0089 10.5368 12.4458C10.1895 12.8715 9.88142 13.3197 9.61253 13.7902C9.54531 13.9023 9.43888 14.0871 9.29324 14.3448C9.1588 14.6025 9.00755 14.8601 8.8395 15.1178C8.67145 15.3755 8.5034 15.6108 8.33535 15.8236C8.16729 16.0365 8.02725 16.1597 7.91522 16.1934C7.69115 16.2606 7.50629 16.2774 7.36065 16.2438C7.215 16.199 7.09737 16.1205 7.00774 16.0085C6.91811 15.8965 6.85089 15.762 6.80608 15.6052C6.77247 15.4371 6.75006 15.2635 6.73886 15.0842C6.70525 14.7257 6.69965 14.3728 6.72205 14.0255C6.75566 13.667 6.79488 13.3141 6.83969 12.9668C6.8845 12.6083 6.92371 12.2554 6.95732 11.908C7.00214 11.5495 7.02455 11.1966 7.02455 10.8493C7.01334 10.558 6.99093 10.2723 6.95732 9.99226C6.92371 9.70097 6.8789 9.40968 6.82288 9.11839C6.34114 9.51051 5.893 9.93064 5.47847 10.3788C5.06395 10.8269 4.66623 11.2919 4.28531 11.7736C3.9156 12.2441 3.55148 12.7315 3.19298 13.2357C2.84567 13.7398 2.49276 14.244 2.13425 14.7481C1.94379 15.0282 1.74213 15.3027 1.52927 15.5716C1.32761 15.8292 1.11474 16.0869 0.890672 16.3446C0.868266 16.3782 0.823452 16.4342 0.756231 16.5127C0.689011 16.5911 0.616189 16.6639 0.537765 16.7311C0.470544 16.7983 0.397722 16.8432 0.319298 16.8656C0.252077 16.888 0.19606 16.86 0.151247 16.7815C0.0504159 16.6023 0.0112039 16.3894 0.0336108 16.1429C0.0448142 15.8853 0.0952296 15.622 0.184857 15.3531C0.274484 15.073 0.39212 14.7873 0.537765 14.496C0.683409 14.2047 0.834655 13.9247 0.991503 13.6558C1.15955 13.3869 1.3164 13.146 1.46205 12.9332C1.61889 12.7091 1.74773 12.5242 1.84856 12.3786C2.33031 11.7176 2.85127 11.0062 3.41144 10.2443C3.97161 9.4825 4.55419 8.73188 5.15918 7.99245C5.77536 7.24182 6.40836 6.5304 7.05816 5.8582C7.70795 5.17479 8.35775 4.59221 9.00755 4.11046C9.29884 3.8976 9.52851 3.83038 9.69656 3.9088C9.86461 3.97602 9.98225 4.11607 10.0495 4.32893C10.1279 4.53059 10.1615 4.77147 10.1503 5.05155C10.1503 5.32043 10.1223 5.5501 10.0663 5.74056C9.97665 6.04306 9.91503 6.34555 9.88142 6.64804C9.85901 6.95053 9.84221 7.25863 9.831 7.57232C9.8086 8.06527 9.78619 8.55262 9.76378 9.03437C9.74137 9.50491 9.70216 9.98106 9.64615 10.4628C9.87021 10.2163 10.1503 9.89143 10.4864 9.48811C10.8225 9.07358 11.1922 8.63665 11.5955 8.17731C11.9989 7.71797 12.4246 7.25863 12.8727 6.79929C13.3321 6.32874 13.7802 5.90301 14.2171 5.5221C14.6541 5.14118 15.0742 4.83309 15.4775 4.59781C15.8921 4.36254 16.2562 4.24491 16.5699 4.24491C16.6595 4.24491 16.7547 4.24491 16.8555 4.24491C16.9676 4.24491 17.0684 4.26171 17.158 4.29532C17.2477 4.31773 17.3205 4.36254 17.3765 4.42976C17.4325 4.49698 17.4549 4.59221 17.4437 4.71545ZM30.1647 4.76586C30.1759 5.51649 30.1535 6.26712 30.0975 7.01775C30.0527 7.76838 30.0078 8.51341 29.963 9.25283C29.8958 10.2723 29.8174 11.3087 29.7278 12.3618C29.6381 13.4149 29.4757 14.4344 29.2404 15.4203C29.218 15.5211 29.1844 15.6388 29.1396 15.7732C29.106 15.9077 29.0555 16.0365 28.9883 16.1597C28.9211 16.2718 28.8371 16.367 28.7362 16.4454C28.6466 16.5127 28.5346 16.5407 28.4001 16.5295C28.0416 16.507 27.7728 16.4062 27.5935 16.227C27.4254 16.0365 27.3246 15.7676 27.291 15.4203C27.2462 14.9834 27.263 14.524 27.3414 14.0423C27.431 13.5493 27.4983 13.0788 27.5431 12.6307C26.8485 12.7651 26.1539 12.8939 25.4592 13.0172C24.7758 13.1404 24.0812 13.2693 23.3754 13.4037C22.8713 13.4933 22.3559 13.5942 21.8293 13.7062C21.314 13.807 20.821 13.9583 20.3505 14.1599C20.0368 14.2944 19.7567 14.496 19.5102 14.7649C19.2638 15.0226 19.0341 15.3083 18.8212 15.622C18.6084 15.9245 18.3955 16.2326 18.1826 16.5463C17.981 16.86 17.7681 17.1288 17.544 17.3529C17.3312 17.577 17.1687 17.6778 17.0567 17.6554C16.9334 17.633 16.8158 17.4761 16.7038 17.1849C16.5917 16.9048 16.5525 16.5743 16.5861 16.1934C16.6085 15.8124 16.6982 15.4931 16.855 15.2355C17.3592 14.3952 17.9305 13.5269 18.5691 12.6307C19.2189 11.7232 19.9024 10.8381 20.6194 9.97546C21.3476 9.10159 22.0982 8.27254 22.8713 7.4883C23.6555 6.70406 24.4285 6.00384 25.1904 5.38765C25.6833 4.99554 26.2267 4.65943 26.8205 4.37935C27.4142 4.09926 28.0192 3.8976 28.6354 3.77436C29.0948 3.67353 29.4645 3.68473 29.7446 3.80797C30.0246 3.92001 30.1647 4.2393 30.1647 4.76586ZM27.9464 7.15219C27.8904 6.79368 27.7167 6.53601 27.4254 6.37916C27.1454 6.45758 26.8317 6.60883 26.4844 6.8329C26.1483 7.05696 25.7954 7.32585 25.4256 7.63954C25.0671 7.95324 24.703 8.28934 24.3333 8.64785C23.9636 9.00636 23.6107 9.36487 23.2746 9.72338C22.9497 10.0819 22.6416 10.4236 22.3503 10.7485C22.0702 11.0622 21.8293 11.3311 21.6277 11.5551C22.6136 11.2975 23.6051 11.0678 24.6022 10.8661C25.6105 10.6645 26.6244 10.474 27.6439 10.2948C27.7223 9.7794 27.8064 9.25844 27.896 8.73188C27.9968 8.19411 28.0136 7.66755 27.9464 7.15219ZM46.0899 4.32893C46.1011 4.57541 46.0843 4.83869 46.0395 5.11877C45.9947 5.38765 45.9387 5.66214 45.8714 5.94222C45.8042 6.22231 45.7258 6.49679 45.6362 6.76568C45.5577 7.03456 45.4793 7.28663 45.4009 7.52191C45.0088 8.73188 44.5494 9.90263 44.0229 11.0342C43.5075 12.1657 42.9642 13.3029 42.3928 14.4456C42.2359 14.7593 42.0791 15.0842 41.9222 15.4203C41.7654 15.7452 41.5917 16.0533 41.4013 16.3446C41.3004 16.5014 41.1716 16.6695 41.0148 16.8488C40.8579 17.028 40.6675 17.1064 40.4434 17.084C40.2529 17.0616 40.0961 16.9944 39.9728 16.8824C39.8608 16.7703 39.76 16.6359 39.6703 16.479C39.5583 16.2998 39.4687 16.1149 39.4015 15.9245C39.3342 15.7228 39.2726 15.5211 39.2166 15.3195C39.0374 14.7817 38.8301 14.2103 38.5948 13.6054C38.3595 13.0004 38.1019 12.401 37.8218 11.8072C37.5417 11.2134 37.2392 10.6421 36.9143 10.0931C36.5894 9.53292 36.2477 9.03997 35.8892 8.61424C35.5867 9.1296 35.273 9.66736 34.9481 10.2275C34.6344 10.7765 34.3375 11.3423 34.0574 11.9249C33.7773 12.5074 33.5253 13.0956 33.3012 13.6894C33.0883 14.2832 32.9259 14.877 32.8139 15.4707C32.7914 15.5828 32.7522 15.734 32.6962 15.9245C32.6514 16.1149 32.5842 16.2998 32.4946 16.479C32.4161 16.6583 32.3209 16.8207 32.2089 16.9664C32.0968 17.1008 31.9736 17.1849 31.8392 17.2185C31.7047 17.2521 31.5983 17.2633 31.5199 17.2521C31.4414 17.2409 31.3798 17.2129 31.335 17.1681C31.2902 17.1232 31.2566 17.056 31.2342 16.9664C31.2118 16.8768 31.1838 16.7703 31.1501 16.6471C31.0493 16.2774 31.0213 15.8516 31.0661 15.3699C31.1109 14.8882 31.195 14.3952 31.3182 13.8911C31.4526 13.3869 31.6095 12.9051 31.7887 12.4458C31.968 11.9753 32.136 11.5775 32.2929 11.2526C32.7298 10.3564 33.1892 9.4825 33.6709 8.63104C34.1527 7.77959 34.6008 6.90012 35.0153 5.99264C35.0713 5.8694 35.1554 5.70135 35.2674 5.48848C35.3794 5.27562 35.5083 5.06836 35.6539 4.8667C35.7996 4.66503 35.9564 4.49698 36.1245 4.36254C36.3037 4.2281 36.483 4.17208 36.6622 4.19449C36.8415 4.2169 37.0095 4.28412 37.1664 4.39615C37.3232 4.50819 37.4633 4.64263 37.5865 4.79948C37.721 4.94512 37.833 5.10757 37.9226 5.28682C38.0234 5.45488 38.1075 5.61732 38.1747 5.77417C38.4324 6.39036 38.6564 6.96174 38.8469 7.4883C39.0486 8.01486 39.2558 8.53021 39.4687 9.03437C39.6816 9.52732 39.9168 10.0259 40.1745 10.53C40.4434 11.0342 40.7739 11.5719 41.166 12.1433C42.544 9.93624 43.5411 7.58913 44.1573 5.10197C44.2581 4.68744 44.415 4.35134 44.6279 4.09366C44.8407 3.83598 45.0536 3.66793 45.2665 3.58951C45.4793 3.51108 45.6642 3.53349 45.821 3.65673C45.9891 3.76876 46.0787 3.99283 46.0899 4.32893ZM60.7797 11.1182C60.7797 11.5439 60.7405 11.9136 60.6621 12.2273C60.5948 12.541 60.4828 12.8211 60.326 13.0676C60.1691 13.3029 59.9618 13.5213 59.7042 13.723C59.4577 13.9247 59.1552 14.1263 58.7967 14.328C58.5054 14.496 58.1413 14.6865 57.7044 14.8994C57.2786 15.101 56.8193 15.3139 56.3263 15.538C55.8334 15.7508 55.318 15.9581 54.7803 16.1597C54.2425 16.3614 53.7215 16.5463 53.2174 16.7143C52.7132 16.8712 52.2371 16.9944 51.7889 17.084C51.3408 17.1849 50.9487 17.2353 50.6126 17.2353C50.142 17.2353 49.6547 17.2129 49.1505 17.1681C48.6464 17.1344 48.1646 17.0448 47.7053 16.8992C47.246 16.7535 46.8202 16.5463 46.4281 16.2774C46.0472 15.9973 45.7335 15.622 45.487 15.1514C45.2742 14.7593 45.1677 14.3336 45.1677 13.8742C45.1677 13.4037 45.2405 12.9276 45.3862 12.4458C45.5318 11.9529 45.7335 11.4599 45.9912 10.967C46.2601 10.474 46.5457 10.0091 46.8482 9.57213C47.1619 9.1352 47.4868 8.73188 47.8229 8.36216C48.159 7.99245 48.4727 7.68996 48.764 7.45469C49.2122 7.08497 49.6491 6.74327 50.0748 6.42957C50.5118 6.11588 50.9543 5.82459 51.4024 5.55571C51.8618 5.28682 52.3323 5.04035 52.8141 4.81628C53.2958 4.59221 53.8112 4.37935 54.3601 4.17769C54.5506 4.11046 54.7635 4.04324 54.9987 3.97602C55.2452 3.9088 55.4917 3.84718 55.7382 3.79117C55.9846 3.73515 56.2255 3.69034 56.4608 3.65673C56.7072 3.62312 56.9313 3.60631 57.133 3.60631C57.4579 3.60631 57.7716 3.60631 58.0741 3.60631C58.3878 3.59511 58.7071 3.61751 59.032 3.67353C59.1216 3.68473 59.2112 3.70154 59.3008 3.72395C59.4017 3.73515 59.4857 3.75756 59.5529 3.79117C59.6313 3.82478 59.693 3.87519 59.7378 3.94241C59.7826 4.00963 59.7938 4.10486 59.7714 4.2281C59.7378 4.40736 59.6706 4.65383 59.5697 4.96753C59.4689 5.27002 59.3344 5.57251 59.1664 5.875C59.0095 6.1775 58.8303 6.44078 58.6286 6.66484C58.427 6.88891 58.2085 7.00095 57.9732 7.00095C57.8276 7.00095 57.7212 6.93933 57.6539 6.81609C57.5867 6.69285 57.4971 6.55841 57.3851 6.41277C57.273 6.26712 57.1106 6.14389 56.8977 6.04306C56.696 5.93102 56.3879 5.89181 55.9734 5.92542C55.5477 5.95903 55.1108 6.01505 54.6626 6.09347C54.2145 6.17189 53.7944 6.31194 53.4022 6.5136C53.0325 6.70406 52.6684 6.92252 52.3099 7.169C51.9514 7.40427 51.5873 7.62834 51.2176 7.8412C50.8367 8.05407 50.4277 8.34536 49.9908 8.71507C49.5539 9.07358 49.1505 9.4713 48.7808 9.90823C48.4111 10.3452 48.103 10.8101 47.8565 11.3031C47.6213 11.7848 47.5036 12.261 47.5036 12.7315C47.5036 13.2693 47.6549 13.6894 47.9574 13.9919C48.2599 14.2944 48.6632 14.5072 49.1673 14.6305C49.6715 14.7425 50.2429 14.7817 50.8815 14.7481C51.5201 14.7033 52.1755 14.6137 52.8477 14.4792C53.5311 14.3336 54.2033 14.1543 54.8643 13.9415C55.5253 13.7174 56.1191 13.4877 56.6456 13.2525C57.1834 13.006 57.6259 12.7651 57.9732 12.5298C58.3317 12.2946 58.5446 12.0873 58.6118 11.908C58.4774 11.628 58.2477 11.4375 57.9228 11.3367C57.6091 11.2358 57.245 11.1966 56.8305 11.219C56.4272 11.2414 55.9902 11.3087 55.5197 11.4207C55.0603 11.5327 54.6066 11.6504 54.1585 11.7736C53.7103 11.8968 53.2958 12.0145 52.9149 12.1265C52.534 12.2273 52.2203 12.289 51.9738 12.3114C51.6825 12.3338 51.4977 12.261 51.4192 12.0929C51.3408 11.9249 51.3408 11.712 51.4192 11.4543C51.4977 11.219 51.6321 11.0006 51.8226 10.7989C52.013 10.586 52.2259 10.3956 52.4612 10.2275C52.6964 10.0595 52.9429 9.91384 53.2006 9.7906C53.4583 9.65616 53.6991 9.55533 53.9232 9.48811C54.1249 9.43209 54.3993 9.36487 54.7466 9.28644C55.1052 9.19682 55.4973 9.11839 55.923 9.05117C56.3487 8.97275 56.7913 8.90553 57.2506 8.84951C57.71 8.79349 58.1469 8.76549 58.5614 8.76549C58.9759 8.75428 59.3457 8.78229 59.6706 8.84951C60.0067 8.90553 60.2587 9.01196 60.4268 9.16881C60.5164 9.24723 60.5836 9.37047 60.6284 9.53852C60.6733 9.70657 60.7069 9.89143 60.7293 10.0931C60.7517 10.2835 60.7629 10.474 60.7629 10.6645C60.7741 10.8437 60.7797 10.995 60.7797 11.1182ZM73.9827 4.76586C73.994 5.51649 73.9715 6.26712 73.9155 7.01775C73.8707 7.76838 73.8259 8.51341 73.7811 9.25283C73.7139 10.2723 73.6354 11.3087 73.5458 12.3618C73.4562 13.4149 73.2937 14.4344 73.0585 15.4203C73.0361 15.5211 73.0025 15.6388 72.9576 15.7732C72.924 15.9077 72.8736 16.0365 72.8064 16.1597C72.7392 16.2718 72.6551 16.367 72.5543 16.4454C72.4647 16.5127 72.3527 16.5407 72.2182 16.5295C71.8597 16.507 71.5908 16.4062 71.4116 16.227C71.2435 16.0365 71.1427 15.7676 71.1091 15.4203C71.0643 14.9834 71.0811 14.524 71.1595 14.0423C71.2491 13.5493 71.3163 13.0788 71.3611 12.6307C70.6665 12.7651 69.9719 12.8939 69.2773 13.0172C68.5939 13.1404 67.8993 13.2693 67.1935 13.4037C66.6893 13.4933 66.174 13.5942 65.6474 13.7062C65.132 13.807 64.6391 13.9583 64.1686 14.1599C63.8549 14.2944 63.5748 14.496 63.3283 14.7649C63.0818 15.0226 62.8522 15.3083 62.6393 15.622C62.4264 15.9245 62.2136 16.2326 62.0007 16.5463C61.799 16.86 61.5862 17.1288 61.3621 17.3529C61.1492 17.577 60.9868 17.6778 60.8747 17.6554C60.7515 17.633 60.6339 17.4761 60.5218 17.1849C60.4098 16.9048 60.3706 16.5743 60.4042 16.1934C60.4266 15.8124 60.5162 15.4931 60.6731 15.2355C61.1772 14.3952 61.7486 13.5269 62.3872 12.6307C63.037 11.7232 63.7204 10.8381 64.4374 9.97546C65.1657 9.10159 65.9163 8.27254 66.6893 7.4883C67.4736 6.70406 68.2466 6.00384 69.0084 5.38765C69.5014 4.99554 70.0447 4.65943 70.6385 4.37935C71.2323 4.09926 71.8373 3.8976 72.4535 3.77436C72.9128 3.67353 73.2825 3.68473 73.5626 3.80797C73.8427 3.92001 73.9827 4.2393 73.9827 4.76586ZM71.7645 7.15219C71.7085 6.79368 71.5348 6.53601 71.2435 6.37916C70.9634 6.45758 70.6497 6.60883 70.3024 6.8329C69.9663 7.05696 69.6134 7.32585 69.2437 7.63954C68.8852 7.95324 68.5211 8.28934 68.1514 8.64785C67.7817 9.00636 67.4287 9.36487 67.0926 9.72338C66.7677 10.0819 66.4597 10.4236 66.1684 10.7485C65.8883 11.0622 65.6474 11.3311 65.4457 11.5551C66.4316 11.2975 67.4231 11.0678 68.4203 10.8661C69.4286 10.6645 70.4425 10.474 71.462 10.2948C71.5404 9.7794 71.6244 9.25844 71.7141 8.73188C71.8149 8.19411 71.8317 7.66755 71.7645 7.15219Z" fill="white"/>
<path d="M10.7203 31.5473C10.7744 31.6286 10.7609 31.7639 10.6797 31.9535C10.5984 32.1295 10.4901 32.319 10.3548 32.522C10.2194 32.7251 10.084 32.9146 9.94864 33.0906C9.81326 33.2531 9.71173 33.3546 9.64404 33.3952C9.52221 33.5035 9.40714 33.578 9.29884 33.6186C9.20408 33.6592 9.08224 33.6998 8.93333 33.7404C8.5272 33.8623 8.06693 33.957 7.55251 34.0247C7.05162 34.0924 6.53043 34.1465 5.98893 34.1872C5.46097 34.2278 4.93301 34.2684 4.40505 34.309C3.89062 34.3361 3.41681 34.3699 2.98361 34.4105C2.8347 34.4241 2.62487 34.4444 2.35412 34.4714C2.09691 34.485 1.83293 34.485 1.56218 34.4714C1.30497 34.4444 1.06806 34.3834 0.85146 34.2887C0.648398 34.1939 0.526561 34.0382 0.485949 33.8216C0.431799 33.5103 0.438568 33.1448 0.506255 32.7251C0.573942 32.2919 0.64163 31.9264 0.709317 31.6286C0.912379 30.7216 1.2102 29.7536 1.60279 28.7248C2.00891 27.6959 2.46242 26.6739 2.96331 25.6585C3.46419 24.6297 3.99215 23.6415 4.54719 22.6938C5.11576 21.7327 5.6708 20.8798 6.2123 20.1353C6.36121 19.9322 6.51689 19.7156 6.67934 19.4855C6.84179 19.2553 7.01778 19.0523 7.2073 18.8763C7.28853 18.7951 7.36975 18.8018 7.45098 18.8966C7.54574 18.9913 7.60666 19.0658 7.63373 19.12C7.78264 19.3366 7.86387 19.5396 7.87741 19.7291C7.89094 19.9187 7.8571 20.1285 7.77587 20.3586C7.6405 20.7377 7.43744 21.1776 7.16669 21.6785C6.90948 22.1794 6.62519 22.6938 6.31383 23.2218C6.016 23.7362 5.71818 24.2507 5.42035 24.7651C5.12253 25.2795 4.87209 25.7398 4.66903 26.1459C4.28998 26.8905 3.96508 27.6756 3.69433 28.5014C3.43712 29.3137 3.29497 30.1394 3.2679 30.9788C3.87708 31.0871 4.41858 31.148 4.89239 31.1615C5.36621 31.1615 5.81971 31.1412 6.25291 31.1006C6.69965 31.0465 7.14638 30.9923 7.59312 30.9382C8.05339 30.8705 8.56782 30.8299 9.13639 30.8163C9.46129 30.8028 9.75911 30.8502 10.0299 30.9585C10.3006 31.0668 10.5307 31.2631 10.7203 31.5473ZM30.2605 19.5464C30.2199 19.7224 30.159 19.9254 30.0778 20.1556C30.0101 20.3857 29.9289 20.6226 29.8341 20.8663C29.7394 21.0964 29.6311 21.3198 29.5092 21.5364C29.4009 21.7395 29.2926 21.9154 29.1843 22.0644C28.4533 23.039 27.6681 23.9799 26.8288 24.8869C25.9895 25.7804 25.1637 26.6874 24.3514 27.6079C23.3226 28.7586 22.3885 29.8958 21.5492 31.0194C20.7234 32.1295 19.8841 33.3275 19.0312 34.6136C18.6386 35.2092 18.2731 35.5409 17.9347 35.6086C17.6098 35.6898 17.3729 35.5883 17.224 35.304C17.0751 35.0197 17.048 34.5933 17.1427 34.0247C17.251 33.4561 17.5421 32.8266 18.0159 32.1362C18.395 31.5677 18.8011 31.0262 19.2343 30.5117C19.6675 29.9973 20.0736 29.4558 20.4527 28.8872C19.9247 28.8195 19.3629 28.6774 18.7672 28.4608C18.1851 28.2307 17.6436 27.9396 17.1427 27.5876C16.6419 27.2357 16.2087 26.8228 15.8431 26.349C15.4776 25.8616 15.2543 25.3269 15.173 24.7448C15.1189 24.3522 15.1392 23.8851 15.234 23.3436C15.3423 22.8021 15.5115 22.2742 15.7416 21.7598C15.9718 21.2318 16.256 20.7648 16.5945 20.3586C16.9329 19.939 17.3052 19.6682 17.7113 19.5464C17.9279 19.4787 18.1039 19.4855 18.2393 19.5667C18.3747 19.6479 18.4694 19.763 18.5236 19.9119C18.5913 20.0608 18.6251 20.23 18.6251 20.4195C18.6251 20.6091 18.5913 20.7851 18.5236 20.9475C18.4559 21.0964 18.3882 21.2453 18.3205 21.3942C18.2664 21.5296 18.2257 21.6853 18.1987 21.8613C18.0498 22.5652 18.131 23.2083 18.4423 23.7904C18.7537 24.359 19.1734 24.8598 19.7013 25.293C19.8908 25.4419 20.1074 25.5841 20.3511 25.7195C20.5948 25.8548 20.8452 25.9699 21.1025 26.0647C21.3732 26.1459 21.6439 26.2068 21.9147 26.2474C22.199 26.2745 22.463 26.2677 22.7066 26.2271C23.5595 25.4013 24.365 24.5282 25.1231 23.6076C25.8947 22.6735 26.6257 21.7327 27.3161 20.7851C27.4244 20.6497 27.5666 20.4602 27.7426 20.2165C27.9186 19.9593 28.1149 19.7088 28.3315 19.4652C28.5481 19.2215 28.7714 19.0184 29.0016 18.856C29.2317 18.68 29.4415 18.6055 29.6311 18.6326C29.9424 18.6732 30.1387 18.7612 30.2199 18.8966C30.3147 19.032 30.3282 19.2486 30.2605 19.5464ZM44.0575 19.6682C44.0981 19.9119 44.0846 20.1488 44.0169 20.3789C43.9492 20.5955 43.8477 20.8054 43.7123 21.0084C43.5769 21.198 43.4212 21.3807 43.2453 21.5567C43.0828 21.7327 42.9204 21.8884 42.7579 22.0237C41.526 23.039 40.2873 24.0273 39.0419 24.9884C37.81 25.9361 36.578 26.9378 35.3461 27.9938C34.6828 28.5623 34.0465 29.1512 33.4374 29.7604C32.8282 30.356 32.2054 30.9517 31.5692 31.5473C32.2461 31.615 32.9026 31.6286 33.5389 31.588C34.1751 31.5473 34.8182 31.4729 35.468 31.3646C35.7117 31.324 36.0975 31.2698 36.6254 31.2021C37.1534 31.1345 37.7084 31.0803 38.2905 31.0397C38.8726 30.9855 39.4141 30.9517 39.915 30.9382C40.4295 30.9111 40.7814 30.9314 40.971 30.9991C41.1334 31.0532 41.2146 31.1345 41.2146 31.2428C41.2146 31.3375 41.174 31.439 41.0928 31.5473C41.0251 31.6556 40.9371 31.7572 40.8288 31.8519C40.7205 31.9467 40.6325 32.0279 40.5648 32.0956C40.2805 32.3799 39.9083 32.6439 39.448 32.8876C39.0013 33.1312 38.5207 33.3478 38.0063 33.5374C37.5054 33.7133 36.9977 33.869 36.4833 34.0044C35.9824 34.1262 35.5357 34.221 35.1431 34.2887C34.1278 34.4376 33.1057 34.6 32.0768 34.776C31.0615 34.952 30.0395 35.04 29.0106 35.04C28.8752 35.04 28.7195 35.0265 28.5436 34.9994C28.3676 34.9723 28.1984 34.9249 28.0359 34.8573C27.887 34.7896 27.7516 34.7016 27.6298 34.5933C27.5215 34.485 27.4606 34.3428 27.447 34.1668C27.4064 33.8013 27.5079 33.3952 27.7516 32.9485C27.9953 32.5017 28.3202 32.0415 28.7263 31.5677C29.1324 31.0938 29.5859 30.62 30.0868 30.1462C30.6013 29.6724 31.1089 29.2257 31.6098 28.806C32.1242 28.3863 32.6048 28.0005 33.0515 27.6486C33.5118 27.2966 33.8773 27.0123 34.1481 26.7957C35.0822 26.0511 35.9892 25.2998 36.8691 24.5417C37.7626 23.7836 38.6154 22.9714 39.4277 22.105C38.1552 22.0508 36.8759 22.0982 35.5898 22.2471C34.3038 22.396 33.0718 22.7074 31.8941 23.1812C31.515 23.3301 31.2307 23.3707 31.0412 23.303C30.8517 23.2353 30.7434 23.1 30.7163 22.8969C30.6893 22.6938 30.7299 22.4434 30.8382 22.1456C30.9465 21.8478 31.1089 21.5499 31.3255 21.2521C31.5421 20.9543 31.7993 20.6768 32.0971 20.4195C32.4085 20.1623 32.7469 19.966 33.1125 19.8307C33.654 19.6276 34.209 19.4922 34.7776 19.4245C35.3597 19.3433 35.935 19.2892 36.5036 19.2621C37.1399 19.235 37.7693 19.2283 38.3921 19.2418C39.0148 19.2553 39.6443 19.2553 40.2805 19.2418C40.6461 19.2283 41.0048 19.2079 41.3568 19.1809C41.7223 19.1538 42.0878 19.1403 42.4533 19.1403C42.5481 19.1403 42.6631 19.1403 42.7985 19.1403C42.9339 19.1267 43.0693 19.1267 43.2046 19.1403C43.3536 19.1538 43.4889 19.1741 43.6108 19.2012C43.7461 19.2283 43.8544 19.2756 43.9357 19.3433C43.9763 19.3704 44.0033 19.4178 44.0169 19.4855C44.044 19.5532 44.0575 19.6141 44.0575 19.6682ZM59.2112 19.7698C59.3465 19.9999 59.3804 20.1894 59.3127 20.3383C59.245 20.4872 59.1029 20.6226 58.8863 20.7444C58.7103 20.8392 58.3786 20.934 57.8913 21.0287C57.4174 21.11 56.8962 21.198 56.3277 21.2927C55.7726 21.3739 55.2244 21.4552 54.6829 21.5364C54.1414 21.6041 53.7217 21.6785 53.4239 21.7598C52.7064 21.9357 51.9889 22.1117 51.2714 22.2877C50.5675 22.4502 49.8771 22.6735 49.2002 22.9578C48.9295 23.2421 48.7061 23.479 48.5301 23.6685C48.3676 23.8581 48.2187 24.0544 48.0834 24.2574C47.948 24.4469 47.8194 24.6568 47.6975 24.8869C47.5892 25.117 47.4539 25.4149 47.2914 25.7804C48.1307 25.7127 48.9565 25.6179 49.7688 25.4961C50.581 25.3607 51.4 25.2186 52.2258 25.0697C52.9027 24.9478 53.5796 24.826 54.2564 24.7042C54.9469 24.5823 55.6373 24.5282 56.3277 24.5417C56.3954 24.5417 56.5037 24.5417 56.6526 24.5417C56.8015 24.5282 56.9504 24.5349 57.0993 24.562C57.2482 24.5756 57.3768 24.6026 57.4851 24.6432C57.607 24.6839 57.6747 24.7583 57.6882 24.8666C57.7153 25.0561 57.695 25.266 57.6273 25.4961C57.5596 25.7127 57.4648 25.9225 57.343 26.1256C57.2211 26.3151 57.0722 26.4843 56.8962 26.6332C56.7203 26.7822 56.5307 26.8837 56.3277 26.9378C55.6102 27.1274 54.8589 27.2763 54.0737 27.3846C53.3021 27.4793 52.5507 27.5944 51.8197 27.7298C50.8721 27.9193 49.9245 28.1359 48.9768 28.3796C48.0427 28.6097 47.129 28.9143 46.2355 29.2934C45.9918 29.713 45.7888 30.153 45.6263 30.6133C45.4774 31.0735 45.3556 31.5406 45.2608 32.0144C46.1813 32.0279 47.0342 31.9873 47.8194 31.8926C48.6181 31.7978 49.3897 31.676 50.1343 31.527C50.8924 31.3646 51.6573 31.1886 52.4289 30.9991C53.2005 30.796 54.0195 30.5997 54.8859 30.4102C55.3597 30.3154 55.6711 30.3831 55.82 30.6133C55.9825 30.8299 56.0095 31.1141 55.9012 31.4661C55.8065 31.8181 55.5831 32.1836 55.2311 32.5627C54.8927 32.9417 54.4527 33.2328 53.9112 33.4358C53.3291 33.6524 52.6116 33.8623 51.7588 34.0653C50.9059 34.2684 50.0192 34.4579 49.0987 34.6339C48.1781 34.7963 47.2779 34.9385 46.3979 35.0603C45.518 35.1957 44.7599 35.2972 44.1237 35.3649C43.6634 35.4191 43.2979 35.3649 43.0271 35.2025C42.7564 35.04 42.5668 34.8234 42.4585 34.5527C42.3367 34.2684 42.2826 33.9435 42.2961 33.578C42.2961 33.2125 42.3367 32.8537 42.4179 32.5017C42.5127 32.0821 42.6751 31.5203 42.9053 30.8163C43.149 30.0988 43.4265 29.3204 43.7378 28.4811C44.0627 27.6282 44.4147 26.7551 44.7938 25.8616C45.1728 24.9546 45.5451 24.1017 45.9106 23.303C46.2896 22.4908 46.6552 21.7733 47.0071 21.1506C47.3591 20.5143 47.6637 20.0405 47.9209 19.7291C48.1917 19.4178 48.5301 19.2756 48.9362 19.3027C49.3559 19.3162 49.6808 19.499 49.9109 19.851C50.4795 19.6885 51.0954 19.5328 51.7588 19.3839C52.4357 19.235 53.1193 19.1132 53.8097 19.0184C54.5001 18.9237 55.1838 18.8627 55.8606 18.8357C56.5375 18.8086 57.167 18.8289 57.7491 18.8966C58.0334 18.9372 58.3109 19.032 58.5817 19.1809C58.8524 19.3162 59.0622 19.5125 59.2112 19.7698ZM75.8324 22.2268C75.8189 22.6329 75.7173 23.0255 75.5278 23.4046C75.3518 23.7701 75.1217 24.122 74.8374 24.4605C74.5667 24.7989 74.2621 25.1103 73.9236 25.3946C73.5987 25.6789 73.2806 25.9225 72.9692 26.1256C72.1705 26.6536 71.3447 27.1003 70.4919 27.4658C69.639 27.8178 68.7659 28.1494 67.8724 28.4608C68.1296 28.6368 68.4139 28.8195 68.7252 29.0091C69.0501 29.1851 69.3683 29.3746 69.6796 29.5776C70.0045 29.7672 70.3091 29.9702 70.5934 30.1868C70.8912 30.3899 71.1417 30.5997 71.3447 30.8163C71.5478 31.0329 71.6832 31.2901 71.7509 31.588C71.8321 31.8858 71.8592 32.1836 71.8321 32.4814C71.8186 32.7793 71.7576 33.0568 71.6493 33.314C71.541 33.5712 71.3989 33.7675 71.2229 33.9029C71.0605 34.0382 70.8709 34.0924 70.6543 34.0653C70.4513 34.0247 70.2347 33.869 70.0045 33.5983C69.5713 33.0703 69.0163 32.5965 68.3394 32.1768C67.6626 31.7436 66.9383 31.3714 66.1667 31.06C65.4086 30.7486 64.6369 30.505 63.8518 30.329C63.0666 30.1394 62.3423 30.0244 61.679 29.9838C61.4353 30.3493 61.212 30.708 61.0089 31.06C60.8194 31.3984 60.6908 31.791 60.6231 32.2378C60.6095 32.4137 60.5757 32.6168 60.5215 32.8469C60.4674 33.0635 60.3929 33.2734 60.2982 33.4764C60.2169 33.6795 60.1019 33.8555 59.953 34.0044C59.8041 34.1533 59.6281 34.2548 59.425 34.309C59.1813 34.3631 58.9986 34.309 58.8767 34.1465C58.7549 33.9706 58.6737 33.754 58.6331 33.4967C58.5925 33.2395 58.5789 32.9755 58.5925 32.7048C58.606 32.434 58.6263 32.2378 58.6534 32.1159C58.8158 31.2901 59.073 30.4914 59.425 29.7198C59.777 28.9346 60.156 28.1562 60.5622 27.3846C60.9683 26.5994 61.3609 25.8075 61.7399 25.0087C62.1325 24.1965 62.4506 23.3572 62.6943 22.4908C62.4642 22.2877 62.3559 22.0711 62.3694 21.841C62.3829 21.6108 62.4574 21.3942 62.5928 21.1912C62.7417 20.9746 62.9244 20.7851 63.141 20.6226C63.3576 20.4466 63.5539 20.3112 63.7299 20.2165C64.0684 20.0405 64.5016 19.8645 65.0295 19.6885C65.5575 19.5125 66.1396 19.3569 66.7759 19.2215C67.4256 19.0726 68.1025 18.9575 68.8065 18.8763C69.5104 18.7951 70.2008 18.7612 70.8777 18.7747C71.5546 18.7747 72.1976 18.8357 72.8068 18.9575C73.4295 19.0793 73.9642 19.2756 74.411 19.5464C74.8713 19.8171 75.23 20.1759 75.4872 20.6226C75.7444 21.0558 75.8595 21.5905 75.8324 22.2268ZM72.7662 22.5517C72.6714 22.2674 72.4413 22.0644 72.0758 21.9425C71.7103 21.8207 71.2771 21.753 70.7762 21.7395C70.2753 21.7259 69.7338 21.753 69.1517 21.8207C68.5696 21.8748 68.0078 21.9493 67.4663 22.044C66.9248 22.1388 66.4374 22.2403 66.0042 22.3486C65.5846 22.4569 65.2732 22.5449 65.0701 22.6126C64.6911 23.2218 64.3188 23.8851 63.9533 24.6026C63.5878 25.3066 63.29 25.997 63.0598 26.6739C63.6149 26.7009 64.1699 26.6671 64.7249 26.5723C65.2935 26.4776 65.8418 26.3557 66.3697 26.2068C66.5186 26.1662 66.7894 26.0782 67.182 25.9428C67.5746 25.8075 68.0213 25.645 68.5222 25.4555C69.0231 25.2524 69.5375 25.0358 70.0655 24.8057C70.607 24.562 71.0875 24.3116 71.5072 24.0544C71.9404 23.7971 72.2788 23.5399 72.5225 23.2827C72.7662 23.0255 72.8474 22.7818 72.7662 22.5517Z" fill="#F45688"/>
</svg>
